<svg xmlns="http://www.w3.org/2000/svg" width="100" height="100" viewBox="0 0 100 100">
  <path d="M65,30 C70,20 65,10 55,10 C45,10 40,20 40,25 C40,30 45,30 50,30 C55,30 60,30 65,30 Z" fill="#555555" />
  <path d="M30,40 C30,30 40,30 50,30 C60,30 70,30 70,40 L70,80 C70,85 65,90 60,90 L40,90 C35,90 30,85 30,80 L30,40 Z" fill="#555555" />
  <path d="M40,50 L60,50" stroke="white" stroke-width="2" />
  <path d="M45,60 L55,60" stroke="white" stroke-width="2" />
  <path d="M50,70 L50,80" stroke="white" stroke-width="2" />
</svg> 